<svg xmlns="http://www.w3.org/2000/svg" viewBox="0 0 512 512" width="512" height="512">
  <defs>
    <linearGradient id="bg" x1="0" y1="0" x2="0" y2="1"><stop offset="0" stop-color="#231A63"/><stop offset="1" stop-color="#150F3B"/></linearGradient>
  </defs>
  <rect width="512" height="512" fill="url(#bg)"/>
  <g fill="#FFF8E7" opacity=".85"><circle cx="96" cy="110" r="5"/><circle cx="410" cy="90" r="4"/><circle cx="430" cy="300" r="5"/><circle cx="80" cy="360" r="4"/><circle cx="150" cy="440" r="3"/><circle cx="380" cy="430" r="3"/></g>
  <g transform="translate(256 262) rotate(20) scale(4.6) translate(-32 -32)">
    <path d="M26 46c0 7 6 14 6 14s6-7 6-14z" fill="#FFC93C"/>
    <path d="M18 34l-9 12 11-3zM46 34l9 12-11-3z" fill="#FF6B6B"/>
    <path d="M32 3c11 8 15 21 15 33 0 4-1 7-2 10H19c-1-3-2-6-2-10 0-12 4-25 15-33z" fill="#FFF8E7"/>
    <path d="M32 3c5 4 9 9 11 15H21c2-6 6-11 11-15z" fill="#FF6B6B"/>
    <circle cx="32" cy="28" r="6.5" fill="#5BC0FF" stroke="#221A5C" stroke-width="3.5"/>
    <path d="M26 46h12l-2 4h-8z" fill="#221A5C"/>
  </g>
</svg>
